<?xml version="1.0" encoding="utf-8"?>
<!-- Generator: Adobe Illustrator 18.1.1, SVG Export Plug-In . SVG Version: 6.00 Build 0)  -->
<!DOCTYPE svg PUBLIC "-//W3C//DTD SVG 1.1//EN" "http://www.w3.org/Graphics/SVG/1.1/DTD/svg11.dtd">
<svg version="1.1" id="Calque_1" xmlns="http://www.w3.org/2000/svg" xmlns:xlink="http://www.w3.org/1999/xlink" x="0px" y="0px"
	 viewBox="-272 395.9 50 50" enable-background="new -272 395.9 50 50" xml:space="preserve">
<path fill="#FFFFFF" d="M-272,395.9v50h50v-50H-272z M-252.5,399.8c1.6-1.3,3.7-0.3,4,0c1.5,1.2,1.7,3.4,0.4,4.7
	c-1.3,1.4-3.4,1.4-4.7,0C-254.1,403.1-254.1,401.1-252.5,399.8z M-261.9,407.9c1.7-0.6,3.6-0.8,5.3-1.4c3.3-1.2,6-0.8,8.2,2
	c2.3,2.9,5.1,3.6,8.5,1.7c0.1,0,1.5-0.6,2,0.4c0.6,1-0.6,1.3-1.1,1.5c-1.7,0.9-3.5,1.7-5.4,2.3c-0.6,0.2-1.5,0-2.1-0.3
	c-1.2-0.7-2.3-1.6-3.6-2.5c-0.7,1.6-1.3,3.1-2,4.6c-0.5,1.2-0.2,2,0.8,2.8c1.2,0.9,2.5,1.7,3.5,2.7c0.6,0.6,1.2,1.8,1.1,2.6
	c-0.8,3.2-1.8,6.4-2.9,9.5c-0.2,0.5-0.5,1.5-1.7,1.1c-1.2-0.3-0.7-1.2-0.6-1.8c0.6-2.4,0.9-4.8,1.5-7.1c0.2-1,0-1.6-0.9-2
	c-1.6-0.8-3.2-1.8-4.8-2.7c-2-1.2-2.5-2.4-1.8-4.6c0.7-2.2,1.3-4.4,2.1-6.8c-1.3,0.2-2.3,0.4-3.2,0.4c-1.2,0.1-1.7,0.5-1.6,1.8
	c0.1,1.1,0.1,2.1,0,3.2c-0.1,0.5,0,1.2-0.9,1.4c-0.9,0.2-1.1-0.8-1.1-1.3c-0.3-1.9-0.5-3.8-0.5-5.7
	C-263.1,408.9-262.4,408.1-261.9,407.9z M-269.8,431c-0.5-0.8-0.5-1.3,0-1.7c1.5-0.8,3.1-1.7,4.7-2.4c3-1.2,5.2-2.5,5.9-5.8
	c0.1-0.3,0.1-0.8,0.2-1c1.2,0.8,2.4,1.7,3.6,2.5c-0.5,1-1.1,2-1.5,3c-0.6,1.7-1.8,2.5-3.4,3c-2.3,0.7-4.6,1.6-6.9,2.3
	C-268.1,431.1-269.4,431.7-269.8,431z M-225.3,414.1c-0.8,1.6-1.8,3.1-2.7,4.6c-0.4,0.7-0.8,1.5-1,2.3c-1.6,5.1-3.2,10.3-4.8,15.5
	c-0.2,0.5-0.4,1.1-0.3,1.5c0.8,2.2-0.3,3.5-1.9,4.6c-10.3,0-20.7,0-31,0c-1.2-0.6-2.3-1.5-1.8-2.8c0.4-0.9,1.5-1.6,2.5-2.1
	c0.7-0.4,1.6-0.3,2.4-0.3c8.7-0.5,17.4-0.9,26.1-1.4c0.5,0,1.4-0.4,1.5-0.8c1.5-4.8,3-9.6,4.4-14.4c-1.9-0.8-3.6-0.8-5.2,0.2
	c-2,1.3-4.2,1.4-6.5,1.2c-0.4,0-1.2,0-1.2-1c0-1,0.7-0.8,1.1-0.9c0.9-0.1,1.8,0,2.7-0.1c1.3-0.2,2.7-0.3,3.1-2.1
	c0.1-0.4,0.9-0.9,1.5-1c1.9-0.5,3.9-0.7,5.7-1.2c0.7-0.2,1.4-0.8,1.9-1.3c0.5-0.6,0.8-1.3,1.2-2c0.6-0.9,1-2.6,2.5-1.7
	C-223.4,412-224.8,413.1-225.3,414.1z"/>
</svg>
