<?xml version="1.0" encoding="utf-8"?>
<!-- Generator: Adobe Illustrator 18.1.1, SVG Export Plug-In . SVG Version: 6.00 Build 0)  -->
<!DOCTYPE svg PUBLIC "-//W3C//DTD SVG 1.1//EN" "http://www.w3.org/Graphics/SVG/1.1/DTD/svg11.dtd">
<svg version="1.1" id="Calque_1" xmlns="http://www.w3.org/2000/svg" xmlns:xlink="http://www.w3.org/1999/xlink" x="0px" y="0px"
	 viewBox="-272 395.9 50 50" enable-background="new -272 395.9 50 50" xml:space="preserve">
<path fill="#FFFFFF" d="M-272,395.9v50h50v-50H-272z M-246.6,401.5c2.9,0,5.3,2.4,5.3,5.3c0,2.9-2.4,5.3-5.3,5.3s-5.3-2.4-5.3-5.3
	C-251.9,403.8-249.6,401.5-246.6,401.5z M-265.4,441h-5v-7.9l5,3.4V441z M-258.6,441h-4.8v-3.9l4.8,1V441z M-251.5,441h-4.9v-2.7
	l4.9,0.8V441z M-244.3,441h-5.2v-2h0.4h4.8V441z M-237.4,441h-4.9v-1.9l4.9-0.8V441z M-230.4,441h-4.8v-3l4.8-1V441z M-223.7,441h-5
	v-4.4l5-3.4V441z M-246.6,435.8c-12.7,0-23-3.6-23-8c0-3.2,5.3-6,13-7.3v-3.2l-5.9-8.6l7.1-8.1c0,0,3,0,2.4,2.7l-4.5,5.3l4.8,6.5
	h11.9l4.1-6.5l-3.2-5.4c0,0-1-3.6,2.8-2.7l5.7,8.1l-4.3,7.4l-0.3,4.6c7.3,1.3,12.3,4,12.3,7.1C-223.7,432.2-233.9,435.8-246.6,435.8
	z"/>
<path fill="#FFFFFF" d="M-237.8,423c-1.7,0.7-4.4,0-3.4-1.7s-6.7-1.2-5.7,2.2s-4.8,2-3.3,0c1.5-2-3.4-3-2.9,1.4c0,0-1,1-2.2,0.6
	c-2.4,1.2-3,3.1-0.1,4.9c4,1.1,3.2-2.3,5.4-1.7h0.8c0,0,1.5,1.5,3.1,0c1.5-1.5,2.1-3.8,7.3-1.3c5.2,2.5,5.7,0.8,5.7-2
	C-233.2,422.6-236,422.3-237.8,423z"/>
</svg>
