<?xml version="1.0" encoding="utf-8"?>
<!-- Generator: Adobe Illustrator 18.1.1, SVG Export Plug-In . SVG Version: 6.00 Build 0)  -->
<!DOCTYPE svg PUBLIC "-//W3C//DTD SVG 1.1//EN" "http://www.w3.org/Graphics/SVG/1.1/DTD/svg11.dtd">
<svg version="1.1" id="Calque_1" xmlns="http://www.w3.org/2000/svg" xmlns:xlink="http://www.w3.org/1999/xlink" x="0px" y="0px"
	 viewBox="-272 395.9 50 50" enable-background="new -272 395.9 50 50" xml:space="preserve">
<g>
	<path fill="#FFFFFF" d="M-249.8,422.7c-1.4,0-2.5,0.4-3.2,1.3c-0.7,0.9-1,1.9-1,3.1c0,1.2,0.4,2.2,1,3.1c0.7,0.9,1.8,1.3,3.2,1.3
		c1.4,0,2.5-0.4,3.2-1.3c0.7-0.9,1-1.9,1-3.1c0-1.2-0.3-2.2-1-3.1C-247.3,423.1-248.4,422.7-249.8,422.7z"/>
	<polygon fill="#FFFFFF" points="-247.1,405.7 -260.8,415.5 -233.5,415.5 	"/>
	<path fill="#FFFFFF" d="M-240.3,422.7c-1.4,0-2.5,0.4-3.2,1.3c-0.7,0.9-1,1.9-1,3.1c0,1.2,0.3,2.2,1,3.1c0.7,0.9,1.8,1.3,3.2,1.3
		c1.4,0,2.5-0.4,3.2-1.3c0.7-0.9,1-1.9,1-3.1c0-1.2-0.3-2.2-1-3.1C-237.8,423.1-238.9,422.7-240.3,422.7z"/>
	<path fill="#FFFFFF" d="M-258.8,420h-4.8v11.2h2.3v-4h2.3c1.2,0,2.1-0.3,2.8-0.8c0.7-0.5,1-1.5,1-2.8c0-1.2-0.3-2.1-1-2.7
		C-256.8,420.3-257.7,420-258.8,420z"/>
	<rect x="-234.5" y="420" fill="#FFFFFF" width="2.2" height="11.2"/>
	<path fill="#FFFFFF" d="M-272,395.9v50h50v-50H-272z M-224.2,432.8c0,1.9-1.5,3.4-3.4,3.4h-39.1c-1.9,0-3.4-1.5-3.4-3.4v-13.9
		c0-1.9,1.5-3.4,3.4-3.4h1.6l17.2-12.4c0.4-0.3,1-0.3,1.5,0l17.2,12.4h1.6c1.9,0,3.4,1.5,3.4,3.4V432.8z"/>
</g>
<rect x="-270.1" y="402.7" fill="none" width="46.8" height="33.3"/>
<path fill="#FFFFFF" d="M-249.8,424.5c-0.6,0-1.1,0.2-1.5,0.7c-0.3,0.4-0.5,1.1-0.5,1.9c0,0.8,0.2,1.5,0.5,1.9
	c0.3,0.5,0.8,0.7,1.5,0.7c0.6,0,1.1-0.2,1.5-0.7c0.3-0.4,0.5-1.1,0.5-1.9c0-0.8-0.2-1.5-0.5-1.9
	C-248.7,424.7-249.2,424.5-249.8,424.5z"/>
<path fill="#FFFFFF" d="M-240.3,424.5c-0.6,0-1.1,0.2-1.5,0.7c-0.3,0.4-0.5,1.1-0.5,1.9c0,0.8,0.2,1.5,0.5,1.9
	c0.3,0.5,0.8,0.7,1.5,0.7c0.6,0,1.1-0.2,1.5-0.7c0.3-0.4,0.5-1.1,0.5-1.9c0-0.8-0.2-1.5-0.5-1.9
	C-239.2,424.7-239.7,424.5-240.3,424.5z"/>
<path fill="#FFFFFF" d="M-259.2,422h-2.1v3.3h2.1c0.5,0,0.9-0.1,1.2-0.4c0.3-0.3,0.4-0.7,0.4-1.3c0-0.6-0.2-1-0.4-1.2
	C-258.3,422.1-258.7,422-259.2,422z"/>
</svg>
