<?xml version="1.0" encoding="utf-8"?>
<!-- Generator: Adobe Illustrator 18.1.1, SVG Export Plug-In . SVG Version: 6.00 Build 0)  -->
<!DOCTYPE svg PUBLIC "-//W3C//DTD SVG 1.1//EN" "http://www.w3.org/Graphics/SVG/1.1/DTD/svg11.dtd">
<svg version="1.1" id="Calque_1" xmlns="http://www.w3.org/2000/svg" xmlns:xlink="http://www.w3.org/1999/xlink" x="0px" y="0px"
	 viewBox="-272 395.9 50 50" enable-background="new -272 395.9 50 50" xml:space="preserve">
<g>
	<path fill="#FFFFFF" d="M-272,395.9v50h50v-50H-272z M-247.2,435.4c-13,0-23.5-11.4-23.5-14.2c0-2.8,10.5-14.2,23.5-14.2
		c13,0,23.5,11.4,23.5,14.2C-223.8,424-234.3,435.4-247.2,435.4z"/>
	<path fill="#FFFFFF" d="M-247.8,409.8c-6.1,0-11.1,5-11.1,11.1s5,11.1,11.1,11.1s11.1-5,11.1-11.1S-241.6,409.8-247.8,409.8z
		 M-249.9,421.2c-2.6,0-4.7-2.1-4.7-4.7c0-2.6,2.1-4.7,4.7-4.7s4.7,2.1,4.7,4.7C-245.3,419.1-247.4,421.2-249.9,421.2z"/>
</g>
</svg>
