<?xml version="1.0" encoding="UTF-8" standalone="no"?>
<svg width="590px" height="38px" viewBox="0 0 590 38" version="1.1" xmlns="http://www.w3.org/2000/svg" xmlns:xlink="http://www.w3.org/1999/xlink">
    <!-- Generator: Sketch 39 (31667) - http://www.bohemiancoding.com/sketch -->
    <title>Slice 1</title>
    <desc>Created with Sketch.</desc>
    <defs></defs>
    <g id="Page-1" stroke="none" stroke-width="1" fill="none" fill-rule="evenodd">
        <g id="logo_baseline" fill="#404344">
            <g id="Group">
                <path d="M6.4,19.2 L2.9,28.6 L0.8,28.6 L11.1,1.6 L13,1.6 L23.2,28.7 L21.1,28.7 L17.6,19.1 L6.4,19.1 L6.4,19.2 Z M17,17.6 L13.6,8.6 C12.9,6.7 12.6,5.4 12.1,3.9 L12,3.9 C11.6,5.5 11.1,6.8 10.5,8.6 L7,17.7 L17,17.7 L17,17.6 L17,17.6 Z" id="Shape"></path>
                <path d="M44.4,25.9 C44.4,30.8 43.4,33.3 41.6,34.7 C39.7,36.3 37,37.1 34.7,37.1 C32.4,37.1 29.8,36.5 28.4,35.5 L29.1,34 C30.4,34.9 32.5,35.6 35.1,35.6 C39.4,35.6 42.5,33.5 42.5,27.8 L42.5,25 L42.4,25 C41.4,26.9 39,28.7 35.3,28.7 C30.1,28.7 26.6,24.4 26.6,19.3 C26.6,12.7 31.2,9.1 35.7,9.1 C39.7,9.1 41.7,11.2 42.5,12.8 L42.6,12.8 L42.7,9.6 L44.6,9.6 C44.5,11.1 44.5,12.5 44.5,14.6 L44.5,25.9 L44.4,25.9 L44.4,25.9 Z M42.5,16.9 C42.5,16.2 42.4,15.6 42.2,15 C41.3,12.6 39.3,10.6 35.9,10.6 C31.6,10.6 28.7,14 28.7,19 C28.7,23.3 31.1,27.1 35.9,27.1 C38.6,27.1 41.1,25.5 42.1,22.8 C42.4,22.2 42.5,21.5 42.5,20.7 C42.5,20.7 42.5,16.9 42.5,16.9 L42.5,16.9 Z" id="Shape"></path>
                <path d="M52.8,18.9 C52.8,25.1 56.3,27.4 60.5,27.4 C63.4,27.4 64.9,26.8 66.1,26.4 L66.5,27.9 C65.8,28.3 63.7,29.1 60.2,29.1 C54.5,29.1 50.8,25.1 50.8,19.4 C50.8,12.9 54.6,8.9 59.9,8.9 C66.5,8.9 67.7,14.8 67.7,17.6 C67.7,18.2 67.7,18.5 67.6,18.8 L52.8,18.8 L52.8,18.9 L52.8,18.9 Z M65.8,17.3 C65.8,14.6 64.6,10.5 59.8,10.5 C55.4,10.5 53.5,14.3 53,17.3 L65.8,17.3 L65.8,17.3 Z" id="Shape"></path>
                <path d="M74.2,14.1 C74.2,12.3 74.1,11 74.1,9.5 L76,9.5 L76.1,13 L76.2,13 C77.2,10.8 79.7,9 83.1,9 C85,9 90.2,9.9 90.2,17.1 L90.2,28.6 L88.3,28.6 L88.3,17.3 C88.3,13.8 86.8,10.7 82.7,10.7 C79.9,10.7 77.4,12.6 76.7,15.1 C76.6,15.5 76.4,16.3 76.4,16.9 L76.4,28.8 L74.5,28.8 L74.5,14.1 L74.2,14.1 L74.2,14.1 Z" id="Shape"></path>
                <path d="M112.1,27.9 C111.2,28.3 109.2,29.2 106.2,29.2 C100.3,29.2 96.5,25.2 96.5,19.3 C96.5,13.3 100.9,9 107,9 C109.5,9 111.6,9.7 112.3,10.2 L111.6,11.8 C110.6,11.2 109.1,10.6 106.7,10.6 C101.2,10.6 98.4,14.6 98.4,19.1 C98.4,24.1 101.8,27.4 106.4,27.4 C108.8,27.4 110.4,26.8 111.4,26.4 L112.1,27.9 L112.1,27.9 Z" id="Shape"></path>
                <path d="M118.4,18.9 C118.4,25.1 121.9,27.4 126.1,27.4 C129,27.4 130.5,26.8 131.7,26.4 L132.1,27.9 C131.4,28.3 129.3,29.1 125.8,29.1 C120.1,29.1 116.4,25.1 116.4,19.4 C116.4,12.9 120.2,8.9 125.5,8.9 C132.1,8.9 133.3,14.8 133.3,17.6 C133.3,18.2 133.3,18.5 133.2,18.8 L118.5,18.8 L118.5,18.9 L118.4,18.9 Z M131.4,17.3 C131.4,14.6 130.2,10.5 125.4,10.5 C121,10.5 119.1,14.3 118.6,17.3 L131.4,17.3 L131.4,17.3 Z" id="Shape"></path>
                <polygon id="Shape" points="152.3 1.7 152.3 28.8 150.4 28.8 150.4 1.7"></polygon>
                <path d="M161.1,14.1 C161.1,12.3 161,11 161,9.5 L162.9,9.5 L163,12.9 L163.1,12.9 C164.4,10.7 166.3,9.1 169.6,9.1 C172.4,9.1 174.6,10.9 175.3,13.4 L175.4,13.4 C176,12.2 176.7,11.3 177.5,10.7 C178.8,9.7 180.2,9.1 182.4,9.1 C184.3,9.1 189,10.1 189,17.5 L189,28.8 L187.1,28.8 L187.1,17.6 C187.1,13.3 185.3,10.7 181.8,10.7 C179.3,10.7 177.2,12.5 176.5,14.5 C176.4,15.1 176.1,15.7 176.1,16.4 L176.1,28.8 L174.2,28.8 L174.2,16.7 C174.2,13.2 172.4,10.7 169.2,10.7 C166.4,10.7 164.3,12.8 163.6,15 C163.5,15.6 163.3,16.2 163.3,16.9 L163.3,28.8 L161.4,28.8 L161.4,14.1 L161.1,14.1 L161.1,14.1 Z" id="Shape"></path>
                <path d="M196.8,14.1 C196.8,12.3 196.7,11 196.7,9.5 L198.6,9.5 L198.7,12.9 L198.8,12.9 C200.1,10.7 202,9.1 205.3,9.1 C208.1,9.1 210.3,10.9 211,13.4 L211.1,13.4 C211.7,12.2 212.4,11.3 213.2,10.7 C214.5,9.7 215.9,9.1 218.1,9.1 C220,9.1 224.7,10.1 224.7,17.5 L224.7,28.8 L222.8,28.8 L222.8,17.6 C222.8,13.3 221,10.7 217.5,10.7 C215,10.7 212.9,12.5 212.2,14.5 C212.1,15.1 211.8,15.7 211.8,16.4 L211.8,28.8 L209.9,28.8 L209.9,16.7 C209.9,13.2 208.1,10.7 204.9,10.7 C202.1,10.7 200,12.8 199.3,15 C199.2,15.6 199,16.2 199,16.9 L199,28.8 L197.1,28.8 L197.1,14.1 L196.8,14.1 L196.8,14.1 Z" id="Shape"></path>
                <path d="M249.8,18.9 C249.8,26.1 244.6,29.2 240.1,29.2 C234.9,29.2 230.8,25.4 230.8,19.3 C230.8,12.7 235.4,9.1 240.4,9.1 C246.2,9.1 249.8,13.1 249.8,18.9 L249.8,18.9 Z M232.9,19.1 C232.9,24 236.1,27.5 240.3,27.5 C244.6,27.5 247.8,23.8 247.8,19 C247.8,15.5 245.7,10.6 240.4,10.6 C235.3,10.5 232.9,15 232.9,19.1 L232.9,19.1 Z" id="Shape"></path>
                <path d="M256.3,0.2 L258.2,0.2 L258.2,13 L258.3,13 C259.6,10.5 262.1,9 265.7,9 C270.9,9 274.4,13.1 274.4,18.9 C274.4,25.8 269.8,29.2 265.4,29.2 C262.2,29.2 259.8,28 258.2,25.2 L258.1,25.2 L258,28.7 L256.2,28.7 C256.3,27.4 256.3,25.6 256.3,24.3 L256.3,0.2 L256.3,0.2 Z M258.2,21.3 C258.2,21.7 258.3,22.2 258.3,22.8 C259.2,25.7 261.8,27.7 264.9,27.7 C269.5,27.7 272.1,24 272.1,19 C272.1,14.6 269.6,10.6 265,10.6 C262.1,10.6 259.3,12.5 258.2,15.8 C258.1,16.2 257.9,16.8 257.9,17.4 L257.9,21.4 L258.2,21.4 L258.2,21.3 Z" id="Shape"></path>
                <path d="M283.4,3.9 C283.4,4.8 282.8,5.5 281.8,5.5 C280.9,5.5 280.2,4.8 280.2,3.9 C280.2,3 280.9,2.3 281.8,2.3 C282.7,2.3 283.4,3 283.4,3.9 L283.4,3.9 Z M280.8,28.7 L280.8,9.5 L282.7,9.5 L282.7,28.8 L280.8,28.8 L280.8,28.7 L280.8,28.7 Z" id="Shape"></path>
                <polygon id="Shape" points="290.8 0.2 292.7 0.2 292.7 28.6 290.8 28.6"></polygon>
                <path d="M303.6,3.9 C303.6,4.8 303,5.5 302,5.5 C301.1,5.5 300.4,4.8 300.4,3.9 C300.4,3 301.1,2.3 302,2.3 C303,2.3 303.6,3 303.6,3.9 L303.6,3.9 Z M301,28.7 L301,9.5 L302.9,9.5 L302.9,28.8 L301,28.8 L301,28.7 L301,28.7 Z" id="Shape"></path>
                <path d="M311.4,18.9 C311.4,25.1 314.9,27.4 319.1,27.4 C322,27.4 323.5,26.8 324.7,26.4 L325.1,27.9 C324.4,28.3 322.3,29.1 318.8,29.1 C313.1,29.1 309.4,25.1 309.4,19.4 C309.4,12.9 313.2,8.9 318.5,8.9 C325.1,8.9 326.3,14.8 326.3,17.6 C326.3,18.2 326.3,18.5 326.2,18.8 L311.5,18.8 L311.5,18.9 L311.4,18.9 Z M324.3,17.3 C324.3,14.6 323.1,10.5 318.3,10.5 C313.9,10.5 312,14.3 311.5,17.3 L324.3,17.3 L324.3,17.3 Z M316.7,1.1 L320.4,6.7 L318.8,6.7 L313.8,1.1 L316.7,1.1 L316.7,1.1 Z" id="Shape"></path>
                <path d="M332.8,15.3 C332.8,13.4 332.7,11.3 332.7,9.6 L334.6,9.6 L334.7,13.4 L334.8,13.4 C335.7,11 337.7,9.1 340.5,9.1 C340.8,9.1 341.1,9.1 341.2,9.2 L341.2,11.1 C340.9,11 340.6,11 340.2,11 C337.4,11 335.5,13.4 334.9,16.3 C334.8,16.9 334.8,17.5 334.8,18.2 L334.8,28.8 L333,28.8 L333,15.2 L332.8,15.2 L332.8,15.3 Z" id="Shape"></path>
                <path d="M346.4,18.9 C346.4,25.1 349.9,27.4 354.1,27.4 C357,27.4 358.5,26.8 359.7,26.4 L360.1,27.9 C359.4,28.3 357.3,29.1 353.8,29.1 C348.1,29.1 344.4,25.1 344.4,19.4 C344.4,12.9 348.2,8.9 353.5,8.9 C360.1,8.9 361.3,14.8 361.3,17.6 C361.3,18.2 361.3,18.5 361.2,18.8 L346.5,18.8 L346.5,18.9 L346.4,18.9 Z M359.2,17.3 C359.2,14.6 358,10.5 353.2,10.5 C348.8,10.5 346.9,14.3 346.4,17.3 L359.2,17.3 L359.2,17.3 Z" id="Shape"></path>
                <polygon id="Shape" points="386.1 16.9 386.1 18.5 376.1 18.5 376.1 16.9"></polygon>
                <path d="M402.5,2 C404.3,1.7 406.6,1.4 408.5,1.4 C412.2,1.4 414.5,2.1 416.2,3.6 C417.4,4.8 418.1,6.5 418.1,8.5 C418.1,12.2 415.9,14.5 412.5,15.6 L412.5,15.7 C414.7,16.4 416.2,18.5 416.9,21.4 C417.9,25.7 418.4,27.6 419,28.8 L416.9,28.8 C416.5,28.1 415.9,25.7 415.1,22.2 C414.2,18.4 412.4,16.6 408.8,16.5 L404.4,16.5 L404.4,28.9 L402.5,28.9 L402.5,2 L402.5,2 L402.5,2 Z M404.6,14.8 L409.2,14.8 C413.6,14.8 416.4,12.4 416.4,8.9 C416.4,4.8 413.2,3.2 408.7,3.2 C406.8,3.2 405.3,3.3 404.6,3.5 L404.6,14.8 L404.6,14.8 Z" id="Shape"></path>
                <path d="M425.5,18.9 C425.5,25.1 429,27.4 433.2,27.4 C436.1,27.4 437.6,26.8 438.8,26.4 L439.2,27.9 C438.5,28.3 436.4,29.1 432.9,29.1 C427.2,29.1 423.5,25.1 423.5,19.4 C423.5,12.9 427.3,8.9 432.6,8.9 C439.2,8.9 440.4,14.8 440.4,17.6 C440.4,18.2 440.4,18.5 440.3,18.8 L425.6,18.8 L425.6,18.9 L425.5,18.9 Z M438.5,17.3 C438.5,14.6 437.3,10.5 432.5,10.5 C428.1,10.5 426.2,14.3 425.7,17.3 L438.5,17.3 L438.5,17.3 Z" id="Shape"></path>
                <path d="M459.5,24.1 C459.5,25.6 459.6,27.2 459.8,28.7 L458,28.7 L457.7,25.9 L457.6,25.9 C456.6,27.4 454.4,29.1 451.1,29.1 C447.1,29.1 445.2,26.3 445.2,23.8 C445.2,19.4 449.3,16.7 457.6,16.7 L457.6,16.3 C457.6,14.4 457.2,10.6 452.4,10.6 C450.6,10.6 448.7,11 447.4,12.1 L446.8,10.6 C448.6,9.4 450.9,9 452.7,9 C458.6,9 459.6,13.1 459.6,16.7 L459.6,24.2 L459.5,24.2 L459.5,24.1 Z M457.5,18.4 C453.1,18.3 447.3,19 447.3,23.6 C447.3,26.4 449.2,27.6 451.3,27.6 C454.7,27.6 456.6,25.7 457.3,23.8 C457.4,23.4 457.4,23.1 457.4,22.6 L457.5,18.4 L457.5,18.4 L457.5,18.4 Z" id="Shape"></path>
                <polygon id="Shape" points="467.3 0.2 469.2 0.2 469.2 28.6 467.3 28.6"></polygon>
                <polygon id="Shape" points="501.4 15.3 490 15.3 490 27 502.7 27 502.7 28.6 488 28.6 488 1.6 502 1.6 502 3.2 489.9 3.2 489.9 13.7 501.2 13.7 501.2 15.2 501.4 15.2"></polygon>
                <path d="M508,26.2 C509,26.8 510.8,27.5 512.6,27.5 C515.8,27.5 517.3,25.9 517.3,23.8 C517.3,21.7 516,20.6 513,19.4 C509.6,18.2 507.8,16.5 507.8,14.1 C507.8,11.3 510,8.9 514,8.9 C515.9,8.9 517.4,9.5 518.4,10.1 L517.7,11.7 C517,11.3 515.8,10.5 513.7,10.5 C511.2,10.5 509.7,12.1 509.7,13.9 C509.7,16 511.2,16.8 513.8,17.9 C517,19.1 519,20.7 519,23.6 C519,26.8 516.3,29.2 512.2,29.2 C510.3,29.2 508.4,28.6 507,27.9 L508,26.2 L508,26.2 Z" id="Shape"></path>
                <path d="M528.6,5.2 L528.6,9.5 L534.3,9.5 L534.3,11 L528.6,11 L528.6,23.5 C528.6,26 529.3,27.5 531.5,27.5 C532.5,27.5 533.3,27.4 533.9,27.2 L534.2,28.7 C533.5,29 532.6,29.1 531.4,29.1 C529.9,29.1 528.7,28.7 528,27.6 C527.1,26.6 526.7,24.9 526.7,23 L526.7,11 L523.3,11 L523.3,9.5 L526.7,9.5 L526.7,6 L528.6,5.2 L528.6,5.2 Z" id="Shape"></path>
                <path d="M552.6,24.1 C552.6,25.6 552.7,27.2 552.9,28.7 L551.1,28.7 L550.8,25.9 L550.7,25.9 C549.7,27.4 547.5,29.1 544.2,29.1 C540.2,29.1 538.3,26.3 538.3,23.8 C538.3,19.4 542.4,16.7 550.7,16.7 L550.7,16.3 C550.7,14.4 550.3,10.6 545.5,10.6 C543.7,10.6 541.8,11 540.5,12.1 L539.9,10.6 C541.7,9.4 544,9 545.8,9 C551.7,9 552.7,13.1 552.7,16.7 L552.7,24.2 L552.6,24.2 L552.6,24.1 Z M550.7,18.4 C546.3,18.3 540.5,19 540.5,23.6 C540.5,26.4 542.4,27.6 544.5,27.6 C547.9,27.6 549.8,25.7 550.5,23.8 C550.6,23.4 550.6,23.1 550.6,22.6 L550.7,18.4 L550.7,18.4 L550.7,18.4 Z" id="Shape"></path>
                <path d="M563.3,5.2 L563.3,9.5 L569,9.5 L569,11 L563.3,11 L563.3,23.5 C563.3,26 564,27.5 566.2,27.5 C567.2,27.5 568,27.4 568.6,27.2 L568.9,28.7 C568.2,29 567.3,29.1 566.1,29.1 C564.6,29.1 563.4,28.7 562.7,27.6 C561.8,26.6 561.4,24.9 561.4,23 L561.4,11 L558,11 L558,9.5 L561.4,9.5 L561.4,6 L563.3,5.2 L563.3,5.2 Z" id="Shape"></path>
                <path d="M574.7,18.9 C574.7,25.1 578.2,27.4 582.4,27.4 C585.3,27.4 586.8,26.8 588,26.4 L588.4,27.9 C587.7,28.3 585.6,29.1 582.1,29.1 C576.4,29.1 572.7,25.1 572.7,19.4 C572.7,12.9 576.5,8.9 581.8,8.9 C588.4,8.9 589.6,14.8 589.6,17.6 C589.6,18.2 589.6,18.5 589.5,18.8 L574.8,18.8 L574.8,18.9 L574.7,18.9 Z M587.7,17.3 C587.7,14.6 586.5,10.5 581.7,10.5 C577.3,10.5 575.4,14.3 574.9,17.3 L587.7,17.3 L587.7,17.3 Z" id="Shape"></path>
            </g>
        </g>
    </g>
</svg>